<svg xmlns="http://www.w3.org/2000/svg" xmlns:xlink="http://www.w3.org/1999/xlink" width="299" height="295" viewBox="0 0 299 295">
  <defs>
    <filter id="Rectangle_7" x="-2" y="22.125" width="299" height="274" filterUnits="userSpaceOnUse">
      <feOffset dy="3" input="SourceAlpha"/>
      <feGaussianBlur stdDeviation="3" result="blur"/>
      <feFlood flood-opacity="0.161"/>
      <feComposite operator="in" in2="blur"/>
      <feComposite in="SourceGraphic"/>
    </filter>
    <clipPath id="clip-Artboard_5">
      <rect width="299" height="295"/>
    </clipPath>
  </defs>
  <g id="Artboard_5" data-name="Artboard – 5" clip-path="url(#clip-Artboard_5)">
    <rect width="299" height="295" fill="#fff"/>
    <g id="Group_202" data-name="Group 202" transform="translate(7 6)">
      <g transform="matrix(1, 0, 0, 1, -7, -6)" filter="url(#Rectangle_7)">
        <rect id="Rectangle_7-2" data-name="Rectangle 7" width="281" height="256" rx="20" transform="translate(7 28.13)" fill="#fff"/>
      </g>
      <text id="Unable_to_track_the_current_status_and_predict_the_end_of_the_year_sales_of_the_sales_team._And_understanding_where_I_stand_and_where_I_have_to_improve_is_not_available_now._" data-name="Unable to track the current status and predict the end of the year sales of the sales team. And understanding where I stand and where I have to improve is not available now.
" transform="translate(28 56.125)" fill="rgba(0,0,0,0.59)" font-size="16" font-family="Roboto-Regular, Roboto"><tspan x="15.566" y="17">Unable to track the current </tspan><tspan x="7.633" y="42">status and predict the end of </tspan><tspan x="17.098" y="67">the year sales of the sales </tspan><tspan x="19.934" y="92">team. And understanding </tspan><tspan x="18.75" y="117">where I stand and where I </tspan><tspan x="31.324" y="142">have to improve is not </tspan><tspan x="59.547" y="167">available now.</tspan><tspan x="109.5" y="192"></tspan></text>
      <g id="Group_1" data-name="Group 1" transform="translate(121)">
        <ellipse id="Ellipse_1" data-name="Ellipse 1" cx="18" cy="17.5" rx="18" ry="17.5" transform="translate(2.16 3.125)" fill="#fff"/>
        <g id="Icon_ionic-md-sad" data-name="Icon ionic-md-sad">
          <path id="Path_1" data-name="Path 1" d="M20.527,20.25a10.748,10.748,0,0,0-9.713,6.082H30.24A10.748,10.748,0,0,0,20.527,20.25Z" transform="translate(-0.759 2.559)" fill="#1a63d9"/>
          <path id="Path_2" data-name="Path 2" d="M23.143,3.375A19.768,19.768,0,1,0,42.91,23.143,19.762,19.762,0,0,0,23.143,3.375Zm0,35.582A15.814,15.814,0,1,1,38.957,23.143,15.861,15.861,0,0,1,23.143,38.957Z" transform="translate(-3.375 -3.375)" fill="#1a63d9"/>
          <path id="Path_3" data-name="Path 3" d="M23.89,18.08a2.965,2.965,0,1,0-2.965-2.965A2.912,2.912,0,0,0,23.89,18.08Z" transform="translate(2.796 -0.289)" fill="#1a63d9"/>
          <path id="Path_4" data-name="Path 4" d="M13.653,18.08a2.965,2.965,0,1,0-2.965-2.965A2.912,2.912,0,0,0,13.653,18.08Z" transform="translate(-0.804 -0.289)" fill="#1a63d9"/>
        </g>
      </g>
    </g>
  </g>
</svg>
