<svg xmlns="http://www.w3.org/2000/svg" width="51.169" height="44.772" viewBox="0 0 51.169 44.772">
  <path id="Icon_metro-table" data-name="Icon metro-table" d="M2.571,3.856V48.629H53.74V3.856H2.571ZM21.759,32.639V23.044H34.551v9.594Zm12.792,3.2v9.594H21.759V35.837Zm0-25.584v9.594H21.759V10.252H34.551Zm-15.99,0v9.594H5.769V10.252H18.561ZM5.769,23.044H18.561v9.594H5.769V23.044Zm31.981,0H50.542v9.594H37.749V23.044Zm0-3.2V10.252H50.542v9.594ZM5.769,35.837H18.561v9.594H5.769V35.837Zm31.981,9.594V35.837H50.542v9.594Z" transform="translate(-2.571 -3.856)" fill="#1a63d9"/>
</svg>
