<svg xmlns="http://www.w3.org/2000/svg" width="16.079" height="24.108" viewBox="0 0 16.079 24.108">
  <path id="Icon_ionic-ios-arrow-round-down" data-name="Icon ionic-ios-arrow-round-down" d="M15.771,15.374a1.094,1.094,0,0,0-1.541-.008l-5.1,5.083V1.08a1.089,1.089,0,0,0-2.177,0V20.449l-5.1-5.091a1.1,1.1,0,0,0-1.541.008A1.084,1.084,0,0,0,.321,16.9l6.95,6.9h0a1.222,1.222,0,0,0,.343.226,1.039,1.039,0,0,0,.419.084A1.091,1.091,0,0,0,8.8,23.8l6.95-6.9A1.067,1.067,0,0,0,15.771,15.374Z" transform="translate(16.079 24.108) rotate(180)" fill="#fff" opacity="0.714"/>
</svg>
