<svg xmlns="http://www.w3.org/2000/svg" width="27.302" height="40.936" viewBox="0 0 27.302 40.936">
  <path id="Icon_ionic-ios-arrow-round-down" data-name="Icon ionic-ios-arrow-round-down" d="M38.027,33.981a1.858,1.858,0,0,0-2.616-.014L26.751,42.6V9.709a1.849,1.849,0,0,0-3.7,0V42.6L14.4,33.953a1.871,1.871,0,0,0-2.616.014,1.841,1.841,0,0,0,.014,2.6l11.8,11.716h0a2.076,2.076,0,0,0,.583.384,1.764,1.764,0,0,0,.711.142,1.853,1.853,0,0,0,1.294-.526l11.8-11.716A1.811,1.811,0,0,0,38.027,33.981Z" transform="translate(38.55 48.811) rotate(180)" fill="#fff" opacity="0.714"/>
</svg>
