<svg xmlns="http://www.w3.org/2000/svg" width="941" height="782" viewBox="0 0 941 782">
  <g id="Group_266" data-name="Group 266" transform="translate(-490.5 -9042)">
    <g id="Rectangle_1679" data-name="Rectangle 1679" transform="translate(491 9042)" fill="#fff" stroke="#4abfa3" stroke-width="1">
      <rect width="940" height="782" stroke="none"/>
      <rect x="0.5" y="0.5" width="939" height="781" fill="none"/>
    </g>
    <rect id="Rectangle_1680" data-name="Rectangle 1680" width="940" height="54" transform="translate(491 9042)" fill="#4abfa3"/>
    <line id="Line_38" data-name="Line 38" y2="781.5" transform="translate(1232.5 9042.5)" fill="none" stroke="#4abfa3" stroke-width="1"/>
    <line id="Line_40" data-name="Line 40" y2="781.5" transform="translate(1137.5 9042.5)" fill="none" stroke="#4abfa3" stroke-width="1"/>
    <line id="Line_39" data-name="Line 39" y2="781.5" transform="translate(1342.5 9042.5)" fill="none" stroke="#4abfa3" stroke-width="1"/>
    <text id="MEDIUM" transform="translate(1285 9076)" fill="#fff" font-size="16" font-family="Roboto-Bold, Roboto" font-weight="700"><tspan x="-31.313" y="0">MEDIUM</tspan></text>
    <text id="HIGH" transform="translate(1182 9076)" fill="#fff" font-size="16" font-family="Roboto-Bold, Roboto" font-weight="700"><tspan x="-19.086" y="0">HIGH</tspan></text>
    <text id="LOW" transform="translate(1391 9076)" fill="#fff" font-size="16" font-family="Roboto-Bold, Roboto" font-weight="700"><tspan x="-16.602" y="0">LOW</tspan></text>
    <text id="The_lack_of_affordance_for_clickability_for_the_deep_dives_on_KPI_detail_pages_" data-name="The lack of affordance for clickability for the deep dives on KPI detail pages " transform="translate(512 9129)" font-size="14" font-family="Roboto-Regular, Roboto"><tspan x="0" y="0">The lack of affordance for clickability for the deep dives on KPI detail pages </tspan></text>
    <text id="The_physical_separation_of_the_data_universe_label_from_the_data_itself" data-name="The physical separation of the data universe label from the data itself" transform="translate(512 9259)" font-size="14" font-family="Roboto-Regular, Roboto"><tspan x="0" y="0">The physical separation of the data universe label from the data itself</tspan></text>
    <text id="The_large_amount_of_screen_real_estate_devoted_to_the_hero" data-name="The large amount of screen real estate devoted to the hero" transform="translate(512 9389)" font-size="14" font-family="Roboto-Regular, Roboto"><tspan x="0" y="0">The large amount of screen real estate devoted to the hero</tspan></text>
    <text id="Users_are_universally_missing_the_meatball_menu_affordance_for_the_contextual_menu" data-name="Users are universally missing the “meatball menu” affordance for the contextual menu" transform="translate(512 9445)" font-size="14" font-family="Roboto-Regular, Roboto"><tspan x="0" y="0">Users are universally missing the “meatball menu” affordance for the contextual menu</tspan></text>
    <text id="Labeling_on_graphs_is_missing_or_not_clear" data-name="Labeling on graphs is missing or not clear" transform="translate(512 9499)" font-size="14" font-family="Roboto-Regular, Roboto"><tspan x="0" y="0">Labeling on graphs is missing or not clear</tspan></text>
    <text id="Ambiguity_of_top_right_nav_items" data-name="Ambiguity of top right nav items" transform="translate(512 9553)" font-size="14" font-family="Roboto-Regular, Roboto"><tspan x="0" y="0">Ambiguity of top right nav items</tspan></text>
    <text id="Add_a_visible_affordance_to_indicate_links_on_deep_dive_pages" data-name="Add a visible affordance to indicate links on deep dive pages" transform="translate(512 9607)" font-size="14" font-family="Roboto-Regular, Roboto"><tspan x="0" y="0">Add a visible affordance to indicate links on deep dive pages</tspan></text>
    <text id="Consider_hiding_the_notifications_reducing_the_real_estate_devoted_to_this_section_or_eliminating_it." data-name="Consider hiding the notifications, reducing the real estate devoted to this section, or eliminating it." transform="translate(512 9735)" font-size="14" font-family="Roboto-Regular, Roboto"><tspan x="0" y="0">Consider hiding the notifications, reducing the real estate devoted to this section, or eliminating it.</tspan></text>
    <text id="Use_established_conventions_for_contact_us_and_profile_links_and_consider_putting_all_Plan_focus_Items_under_one_menu." data-name="Use established conventions for contact us and profile links, and consider putting all Plan focus
Items under one menu." transform="translate(512 9791)" font-size="14" font-family="Roboto-Regular, Roboto"><tspan x="0" y="0">Use established conventions for contact us and profile links, and consider putting all Plan focus</tspan><tspan x="0" y="20">Items under one menu.</tspan></text>
    <text id="Uses_currently_need_to_look_at_the_nav_to_orient_themselves_to_the_data_universe_e.g_all_clients_A_single_client_etc._Consider_attaching_the_data_universe_label_to_the_section_titles" data-name="Uses currently need to look at the nav to orient themselves to the data universe (e.g all clients
A single client, etc.) Consider attaching the data universe label to the section titles" transform="translate(512 9663)" font-size="14" font-family="Roboto-Regular, Roboto"><tspan x="0" y="0">Uses currently need to look at the nav to orient themselves to the data universe (e.g all clients</tspan><tspan x="0" y="20">A single client, etc.) Consider attaching the data universe label to the section titles</tspan></text>
    <text id="Meaningful_timeframes_for_the_tab_items_and_lack_of_clear_labeling_on_the_home_page_and_on_deep_dive_pages." data-name="Meaningful timeframes for the tab items and lack of clear labeling on the  home page and on
deep dive pages." transform="translate(512 9183)" font-size="14" font-family="Roboto-Regular, Roboto"><tspan x="0" y="0" xml:space="preserve">Meaningful timeframes for the tab items and lack of clear labeling on the  home page and on</tspan><tspan x="0" y="20">deep dive pages.</tspan></text>
    <text id="The_hero_items_weren_t_perceived_to_be_helpful_and_study_participants_would_rather_receive_Notifications_through_another_channel" data-name="The hero items weren’t perceived to be helpful, and study participants would rather receive
Notifications through another channel" transform="translate(512 9313)" font-size="14" font-family="Roboto-Regular, Roboto"><tspan x="0" y="0">The hero items weren’t perceived to be helpful, and study participants would rather receive</tspan><tspan x="0" y="20">Notifications through another channel</tspan></text>
    <line id="Line_41" data-name="Line 41" x2="941" transform="translate(490.5 9149.5)" fill="none" stroke="#4abfa3" stroke-width="1"/>
    <line id="Line_43" data-name="Line 43" x2="941" transform="translate(490.5 9281.5)" fill="none" stroke="#4abfa3" stroke-width="1"/>
    <line id="Line_45" data-name="Line 45" x2="941" transform="translate(490.5 9411.5)" fill="none" stroke="#4abfa3" stroke-width="1"/>
    <line id="Line_46" data-name="Line 46" x2="941" transform="translate(490.5 9467.5)" fill="none" stroke="#4abfa3" stroke-width="1"/>
    <line id="Line_47" data-name="Line 47" x2="941" transform="translate(490.5 9521.5)" fill="none" stroke="#4abfa3" stroke-width="1"/>
    <line id="Line_48" data-name="Line 48" x2="941" transform="translate(490.5 9575.5)" fill="none" stroke="#4abfa3" stroke-width="1"/>
    <line id="Line_49" data-name="Line 49" x2="941" transform="translate(490.5 9629.5)" fill="none" stroke="#4abfa3" stroke-width="1"/>
    <line id="Line_50" data-name="Line 50" x2="941" transform="translate(490.5 9703.5)" fill="none" stroke="#4abfa3" stroke-width="1"/>
    <line id="Line_51" data-name="Line 51" x2="941" transform="translate(490.5 9757.5)" fill="none" stroke="#4abfa3" stroke-width="1"/>
    <line id="Line_42" data-name="Line 42" x2="941" transform="translate(490.5 9225.5)" fill="none" stroke="#4abfa3" stroke-width="1"/>
    <line id="Line_44" data-name="Line 44" x2="941" transform="translate(490.5 9355.5)" fill="none" stroke="#4abfa3" stroke-width="1"/>
    <path id="Icon_awesome-check" data-name="Icon awesome-check" d="M6.948,19.533.3,12.884a1.023,1.023,0,0,1,0-1.447L1.746,9.991a1.023,1.023,0,0,1,1.447,0L7.671,14.47l9.593-9.593a1.023,1.023,0,0,1,1.447,0l1.446,1.447a1.023,1.023,0,0,1,0,1.447L8.395,19.533A1.023,1.023,0,0,1,6.948,19.533Z" transform="translate(1174 9110.423)" fill="#4abfa3"/>
    <path id="Icon_awesome-check-2" data-name="Icon awesome-check" d="M6.948,19.533.3,12.884a1.023,1.023,0,0,1,0-1.447L1.746,9.991a1.023,1.023,0,0,1,1.447,0L7.671,14.47l9.593-9.593a1.023,1.023,0,0,1,1.447,0l1.446,1.447a1.023,1.023,0,0,1,0,1.447L8.395,19.533A1.023,1.023,0,0,1,6.948,19.533Z" transform="translate(1174 9175.423)" fill="#4abfa3"/>
    <path id="Icon_awesome-check-3" data-name="Icon awesome-check" d="M6.948,19.533.3,12.884a1.023,1.023,0,0,1,0-1.447L1.746,9.991a1.023,1.023,0,0,1,1.447,0L7.671,14.47l9.593-9.593a1.023,1.023,0,0,1,1.447,0l1.446,1.447a1.023,1.023,0,0,1,0,1.447L8.395,19.533A1.023,1.023,0,0,1,6.948,19.533Z" transform="translate(1174 9240.423)" fill="#4abfa3"/>
    <path id="Icon_awesome-check-4" data-name="Icon awesome-check" d="M6.948,19.533.3,12.884a1.023,1.023,0,0,1,0-1.447L1.746,9.991a1.023,1.023,0,0,1,1.447,0L7.671,14.47l9.593-9.593a1.023,1.023,0,0,1,1.447,0l1.446,1.447a1.023,1.023,0,0,1,0,1.447L8.395,19.533A1.023,1.023,0,0,1,6.948,19.533Z" transform="translate(1270 9305.423)" fill="#4abfa3"/>
    <path id="Icon_awesome-check-5" data-name="Icon awesome-check" d="M6.948,19.533.3,12.884a1.023,1.023,0,0,1,0-1.447L1.746,9.991a1.023,1.023,0,0,1,1.447,0L7.671,14.47l9.593-9.593a1.023,1.023,0,0,1,1.447,0l1.446,1.447a1.023,1.023,0,0,1,0,1.447L8.395,19.533A1.023,1.023,0,0,1,6.948,19.533Z" transform="translate(1270 9372.423)" fill="#4abfa3"/>
    <path id="Icon_awesome-check-6" data-name="Icon awesome-check" d="M6.948,19.533.3,12.884a1.023,1.023,0,0,1,0-1.447L1.746,9.991a1.023,1.023,0,0,1,1.447,0L7.671,14.47l9.593-9.593a1.023,1.023,0,0,1,1.447,0l1.446,1.447a1.023,1.023,0,0,1,0,1.447L8.395,19.533A1.023,1.023,0,0,1,6.948,19.533Z" transform="translate(1270 9426.423)" fill="#4abfa3"/>
    <path id="Icon_awesome-check-7" data-name="Icon awesome-check" d="M6.948,19.533.3,12.884a1.023,1.023,0,0,1,0-1.447L1.746,9.991a1.023,1.023,0,0,1,1.447,0L7.671,14.47l9.593-9.593a1.023,1.023,0,0,1,1.447,0l1.446,1.447a1.023,1.023,0,0,1,0,1.447L8.395,19.533A1.023,1.023,0,0,1,6.948,19.533Z" transform="translate(1377 9482.423)" fill="#4abfa3"/>
    <path id="Icon_awesome-check-8" data-name="Icon awesome-check" d="M6.948,19.533.3,12.884a1.023,1.023,0,0,1,0-1.447L1.746,9.991a1.023,1.023,0,0,1,1.447,0L7.671,14.47l9.593-9.593a1.023,1.023,0,0,1,1.447,0l1.446,1.447a1.023,1.023,0,0,1,0,1.447L8.395,19.533A1.023,1.023,0,0,1,6.948,19.533Z" transform="translate(1174 9591.423)" fill="#4abfa3"/>
    <path id="Icon_awesome-check-9" data-name="Icon awesome-check" d="M6.948,19.533.3,12.884a1.023,1.023,0,0,1,0-1.447L1.746,9.991a1.023,1.023,0,0,1,1.447,0L7.671,14.47l9.593-9.593a1.023,1.023,0,0,1,1.447,0l1.446,1.447a1.023,1.023,0,0,1,0,1.447L8.395,19.533A1.023,1.023,0,0,1,6.948,19.533Z" transform="translate(1377 9538.423)" fill="#4abfa3"/>
    <path id="Icon_awesome-check-10" data-name="Icon awesome-check" d="M6.948,19.533.3,12.884a1.023,1.023,0,0,1,0-1.447L1.746,9.991a1.023,1.023,0,0,1,1.447,0L7.671,14.47l9.593-9.593a1.023,1.023,0,0,1,1.447,0l1.446,1.447a1.023,1.023,0,0,1,0,1.447L8.395,19.533A1.023,1.023,0,0,1,6.948,19.533Z" transform="translate(1174 9647.423)" fill="#4abfa3"/>
    <path id="Icon_awesome-check-11" data-name="Icon awesome-check" d="M6.948,19.533.3,12.884a1.023,1.023,0,0,1,0-1.447L1.746,9.991a1.023,1.023,0,0,1,1.447,0L7.671,14.47l9.593-9.593a1.023,1.023,0,0,1,1.447,0l1.446,1.447a1.023,1.023,0,0,1,0,1.447L8.395,19.533A1.023,1.023,0,0,1,6.948,19.533Z" transform="translate(1174 9783.423)" fill="#4abfa3"/>
    <path id="Icon_awesome-check-12" data-name="Icon awesome-check" d="M6.948,19.533.3,12.884a1.023,1.023,0,0,1,0-1.447L1.746,9.991a1.023,1.023,0,0,1,1.447,0L7.671,14.47l9.593-9.593a1.023,1.023,0,0,1,1.447,0l1.446,1.447a1.023,1.023,0,0,1,0,1.447L8.395,19.533A1.023,1.023,0,0,1,6.948,19.533Z" transform="translate(1275 9718.423)" fill="#4abfa3"/>
  </g>
</svg>
