<svg xmlns="http://www.w3.org/2000/svg" xmlns:xlink="http://www.w3.org/1999/xlink" width="1256" height="265" viewBox="0 0 1256 265">
  <defs>
    <filter id="Rectangle_47" x="0" y="0" width="278" height="265" filterUnits="userSpaceOnUse">
      <feOffset dy="3" input="SourceAlpha"/>
      <feGaussianBlur stdDeviation="3" result="blur"/>
      <feFlood flood-opacity="0.161"/>
      <feComposite operator="in" in2="blur"/>
      <feComposite in="SourceGraphic"/>
    </filter>
    <filter id="Rectangle_47-2" x="326" y="0" width="278" height="265" filterUnits="userSpaceOnUse">
      <feOffset dy="3" input="SourceAlpha"/>
      <feGaussianBlur stdDeviation="3" result="blur-2"/>
      <feFlood flood-opacity="0.161"/>
      <feComposite operator="in" in2="blur-2"/>
      <feComposite in="SourceGraphic"/>
    </filter>
    <filter id="Rectangle_47-3" x="652" y="0" width="278" height="265" filterUnits="userSpaceOnUse">
      <feOffset dy="3" input="SourceAlpha"/>
      <feGaussianBlur stdDeviation="3" result="blur-3"/>
      <feFlood flood-opacity="0.161"/>
      <feComposite operator="in" in2="blur-3"/>
      <feComposite in="SourceGraphic"/>
    </filter>
    <filter id="Rectangle_47-4" x="978" y="0" width="278" height="265" filterUnits="userSpaceOnUse">
      <feOffset dy="3" input="SourceAlpha"/>
      <feGaussianBlur stdDeviation="3" result="blur-4"/>
      <feFlood flood-opacity="0.161"/>
      <feComposite operator="in" in2="blur-4"/>
      <feComposite in="SourceGraphic"/>
    </filter>
  </defs>
  <g id="Group_201" data-name="Group 201" transform="translate(-328 -15880)">
    <g transform="matrix(1, 0, 0, 1, 328, 15880)" filter="url(#Rectangle_47)">
      <g id="Rectangle_47-5" data-name="Rectangle 47" transform="translate(9 6)" fill="#fff" stroke="#1a63d9" stroke-width="1">
        <rect width="260" height="247" rx="30" stroke="none"/>
        <rect x="0.5" y="0.5" width="259" height="246" rx="29.5" fill="none"/>
      </g>
    </g>
    <text id="Importance_of_visualization_tools_to_sales_persons_" data-name="Importance of visualization tools to sales persons
" transform="translate(382 15943)" font-size="24" font-family="Roboto-Regular, Roboto"><tspan x="13.602" y="25">Importance of </tspan><tspan x="22.35" y="55">visualization </tspan><tspan x="17.65" y="85">tools to sales </tspan><tspan x="46.01" y="115">persons</tspan><tspan x="89" y="145"></tspan></text>
    <g id="Group_107" data-name="Group 107" transform="translate(533 1708)">
      <g transform="matrix(1, 0, 0, 1, -205, 14172)" filter="url(#Rectangle_47-2)">
        <g id="Rectangle_47-6" data-name="Rectangle 47" transform="translate(335 6)" fill="#fff" stroke="#1a63d9" stroke-width="1">
          <rect width="260" height="247" rx="30" stroke="none"/>
          <rect x="0.5" y="0.5" width="259" height="246" rx="29.5" fill="none"/>
        </g>
      </g>
      <text id="Building_a_complex_end_to_end_sales_application" data-name="Building a complex end to end sales application" transform="translate(175 14235)" font-size="24" font-family="Roboto-Regular, Roboto"><tspan x="36.559" y="25">Building a </tspan><tspan x="7.074" y="55">complex end to </tspan><tspan x="38.111" y="85">end sales </tspan><tspan x="30.078" y="115">application</tspan></text>
    </g>
    <g id="Group_108" data-name="Group 108" transform="translate(859 1708)">
      <g transform="matrix(1, 0, 0, 1, -531, 14172)" filter="url(#Rectangle_47-3)">
        <g id="Rectangle_47-7" data-name="Rectangle 47" transform="translate(661 6)" fill="#fff" stroke="#1a63d9" stroke-width="1">
          <rect width="260" height="247" rx="30" stroke="none"/>
          <rect x="0.5" y="0.5" width="259" height="246" rx="29.5" fill="none"/>
        </g>
      </g>
      <text id="How_technology_can_boost_business_to_next_level" data-name="How technology can boost business to next level" transform="translate(175 14235)" font-size="24" font-family="Roboto-Regular, Roboto"><tspan x="2.814" y="25">How technology </tspan><tspan x="36.072" y="55">can boost </tspan><tspan x="1.766" y="85">business to next </tspan><tspan x="64.725" y="115">level</tspan></text>
    </g>
    <g id="Group_109" data-name="Group 109" transform="translate(1185 1708)">
      <g transform="matrix(1, 0, 0, 1, -857, 14172)" filter="url(#Rectangle_47-4)">
        <g id="Rectangle_47-8" data-name="Rectangle 47" transform="translate(987 6)" fill="#fff" stroke="#1a63d9" stroke-width="1">
          <rect width="260" height="247" rx="30" stroke="none"/>
          <rect x="0.5" y="0.5" width="259" height="246" rx="29.5" fill="none"/>
        </g>
      </g>
      <text id="Identification_of_further_business_opportunities_in_current_project_" data-name="Identification of further business opportunities in current project
" transform="translate(175 14235)" font-size="24" font-family="Roboto-Regular, Roboto"><tspan x="5.428" y="25">Identification of </tspan><tspan x="2.146" y="55">further business </tspan><tspan x="5.545" y="85">opportunities in </tspan><tspan x="11.17" y="115">current project</tspan><tspan x="89" y="145"></tspan></text>
    </g>
  </g>
</svg>
